<?xml version="1.0" encoding="UTF-8"?><svg id="Layer_1" xmlns="http://www.w3.org/2000/svg" viewBox="0 0 943.09 244.5"><defs><style>.cls-1{fill:#f6ec42;}.cls-1,.cls-2,.cls-3{stroke-width:0px;}.cls-2{fill:#164194;}.cls-3{fill:#fff;}</style></defs><rect class="cls-3" x="16.05" y="25.11" width="294.94" height="200.28"/><rect class="cls-2" x="21.72" y="30.6" width="283.6" height="189.07"/><polygon class="cls-1" points="157.47 71.79 163.46 67.43 169.44 71.79 167.16 64.73 173.25 60.36 165.75 60.36 163.46 53.21 161.16 60.37 153.68 60.36 159.75 64.73 157.47 71.79"/><polygon class="cls-1" points="126.5 80.11 132.49 75.75 138.47 80.11 136.19 73.05 142.27 68.68 134.78 68.68 132.49 61.53 130.19 68.69 122.7 68.68 128.78 73.05 126.5 80.11"/><polygon class="cls-1" points="109.83 84.24 107.53 91.4 100.05 91.39 106.12 95.76 103.85 102.83 109.83 98.46 115.81 102.83 113.54 95.76 119.61 91.39 112.12 91.39 109.83 84.24"/><polygon class="cls-1" points="101.52 129.39 107.5 133.75 105.22 126.69 111.29 122.33 103.81 122.33 101.52 115.17 99.22 122.34 91.73 122.33 97.81 126.69 95.53 133.75 101.52 129.39"/><polygon class="cls-1" points="112.12 153.35 109.83 146.19 107.54 153.36 100.05 153.35 106.12 157.71 103.85 164.78 109.83 160.4 115.81 164.78 113.54 157.71 119.61 153.35 112.12 153.35"/><polygon class="cls-1" points="134.82 176.05 132.53 168.9 130.24 176.06 122.75 176.05 128.82 180.42 126.55 187.48 132.53 183.11 138.51 187.48 136.24 180.42 142.32 176.05 134.82 176.05"/><polygon class="cls-1" points="165.75 184.28 163.46 177.12 161.17 184.29 153.68 184.28 159.75 188.64 157.48 195.71 163.46 191.34 169.44 195.71 167.17 188.64 173.25 184.28 165.75 184.28"/><polygon class="cls-1" points="196.68 176.05 194.4 168.9 192.1 176.06 184.62 176.05 190.68 180.42 188.41 187.48 194.4 183.11 200.38 187.48 198.1 180.42 204.18 176.05 196.68 176.05"/><polygon class="cls-1" points="219.4 153.35 217.1 146.19 214.8 153.36 207.32 153.35 213.4 157.71 211.12 164.78 217.1 160.4 223.08 164.78 220.8 157.71 226.88 153.35 219.4 153.35"/><polygon class="cls-1" points="235.11 122.24 227.61 122.24 225.32 115.08 223.03 122.25 215.54 122.24 221.61 126.6 219.34 133.67 225.32 129.29 231.3 133.67 229.03 126.6 235.11 122.24"/><polygon class="cls-1" points="211.11 102.73 217.1 98.36 223.08 102.73 220.8 95.67 226.88 91.31 219.39 91.31 217.1 84.15 214.8 91.32 207.32 91.31 213.39 95.67 211.11 102.73"/><polygon class="cls-1" points="194.48 61.53 192.19 68.7 184.7 68.68 190.77 73.06 188.5 80.12 194.49 75.75 200.46 80.12 198.19 73.06 204.27 68.68 196.77 68.68 194.48 61.53"/><path class="cls-2" d="m369.35,93.56c3.05,0,5.26-.51,6.65-1.54,1.39-1.03,2.08-2.49,2.08-4.37,0-1.12-.23-2.08-.71-2.89-.47-.81-1.14-1.53-2.01-2.18-.87-.65-1.94-1.25-3.19-1.81-1.25-.56-2.68-1.11-4.3-1.65-1.61-.58-3.17-1.22-4.67-1.91-1.5-.7-2.82-1.56-3.96-2.59-1.14-1.03-2.06-2.26-2.75-3.69-.69-1.43-1.04-3.16-1.04-5.17,0-4.21,1.46-7.51,4.37-9.9,2.91-2.4,6.87-3.6,11.89-3.6,2.91,0,5.49.33,7.75.98,2.26.65,4.05,1.35,5.34,2.11l-2.62,6.85c-1.52-.85-3.19-1.5-5-1.95-1.81-.45-3.68-.67-5.61-.67-2.28,0-4.06.47-5.34,1.41-1.27.94-1.91,2.26-1.91,3.96,0,1.03.21,1.92.64,2.65.42.74,1.02,1.4,1.81,1.98.78.58,1.7,1.12,2.76,1.61,1.05.49,2.2.96,3.45,1.41,2.2.81,4.15,1.63,5.88,2.45,1.72.83,3.18,1.81,4.37,2.96,1.19,1.14,2.1,2.49,2.72,4.03.63,1.54.94,3.41.94,5.61,0,4.21-1.49,7.47-4.47,9.77-2.98,2.31-7.33,3.46-13.06,3.46-1.93,0-3.68-.12-5.27-.37-1.59-.25-3-.55-4.23-.91-1.23-.36-2.29-.73-3.19-1.11-.9-.38-1.61-.73-2.15-1.04l2.49-6.92c1.21.67,2.84,1.34,4.9,2.02,2.06.67,4.55,1.01,7.46,1.01"/><path class="cls-2" d="m417.25,82.48c0-3.63-.82-6.45-2.45-8.46-1.64-2.01-4.26-3.02-7.89-3.02-.76,0-1.56.04-2.39.1-.83.07-1.64.21-2.45.44v20.08c.72.49,1.67.95,2.85,1.38,1.19.43,2.46.64,3.8.64,2.95,0,5.11-1.01,6.48-3.02,1.37-2.01,2.05-4.72,2.05-8.13m8.33-.13c0,2.68-.35,5.15-1.04,7.39-.69,2.24-1.69,4.16-2.99,5.78-1.3,1.61-2.92,2.87-4.87,3.76-1.95.89-4.15,1.34-6.61,1.34-1.66,0-3.18-.2-4.57-.61-1.39-.4-2.53-.85-3.42-1.34v13.64h-8.13v-46.41c1.66-.45,3.69-.88,6.11-1.28,2.42-.4,4.97-.61,7.66-.61s5.26.43,7.46,1.28c2.2.85,4.07,2.07,5.61,3.66,1.54,1.59,2.73,3.52,3.56,5.78.83,2.27,1.24,4.8,1.24,7.63"/><path class="cls-2" d="m457.41,82.28c0-3.49-.75-6.26-2.25-8.29-1.51-2.04-3.6-3.06-6.28-3.06s-4.78,1.02-6.28,3.06c-1.5,2.04-2.25,4.8-2.25,8.29s.75,6.34,2.25,8.4c1.5,2.06,3.6,3.09,6.28,3.09s4.78-1.02,6.28-3.09c1.5-2.06,2.25-4.86,2.25-8.4m8.33,0c0,2.78-.4,5.31-1.21,7.59-.81,2.28-1.95,4.23-3.43,5.84-1.48,1.61-3.26,2.86-5.34,3.76-2.08.9-4.37,1.34-6.88,1.34s-4.79-.45-6.85-1.34c-2.06-.9-3.83-2.15-5.31-3.76-1.48-1.61-2.63-3.56-3.46-5.84-.82-2.28-1.24-4.81-1.24-7.59s.42-5.29,1.24-7.56c.83-2.26,1.99-4.2,3.49-5.81,1.5-1.61,3.28-2.85,5.34-3.72,2.06-.87,4.32-1.31,6.79-1.31s4.73.44,6.82,1.31c2.09.87,3.86,2.11,5.34,3.72,1.48,1.61,2.63,3.55,3.46,5.81.83,2.26,1.24,4.78,1.24,7.56"/><path class="cls-2" d="m486.36,100.55c-2.42-.05-4.42-.32-6.01-.8-1.59-.49-2.86-1.2-3.8-2.11-.94-.92-1.6-2.06-1.98-3.43-.38-1.36-.57-2.92-.57-4.67v-40.44l8.13-1.34v40.23c0,.99.08,1.81.24,2.49.16.67.43,1.24.84,1.72.4.47.95.83,1.65,1.07.69.24,1.57.43,2.65.57l-1.14,6.72Z"/><path class="cls-2" d="m522.9,98.8c-1.57.4-3.61.82-6.11,1.24-2.51.42-5.26.64-8.26.64-2.82,0-5.18-.4-7.09-1.21-1.9-.8-3.42-1.93-4.57-3.36-1.14-1.43-1.96-3.14-2.45-5.14-.49-1.99-.74-4.18-.74-6.55v-19.68h8.13v18.41c0,3.76.55,6.45,1.65,8.06,1.09,1.61,3.01,2.42,5.74,2.42.98,0,2.03-.04,3.13-.13,1.1-.09,1.91-.2,2.45-.34v-28.41h8.13v34.06Z"/><path class="cls-2" d="m568.51,99.88h-8.13v-35.13h8.13v35.13Zm.94-45.41c0,1.52-.49,2.73-1.48,3.63-.99.9-2.15,1.34-3.49,1.34s-2.58-.45-3.56-1.34c-.98-.9-1.48-2.1-1.48-3.63s.49-2.8,1.48-3.69c.98-.9,2.17-1.34,3.56-1.34s2.51.45,3.49,1.34c.98.9,1.48,2.13,1.48,3.69m-21.76-6.72c1.7,0,3.15.13,4.34.4,1.18.27,2.11.54,2.79.8l-1.28,6.58c-.63-.22-1.38-.42-2.25-.6-.88-.18-1.83-.27-2.86-.27-2.69,0-4.53.71-5.54,2.15s-1.51,3.29-1.51,5.58v2.35h12.9v6.79h-12.9v28.35h-8.13v-37.61c0-4.57,1.19-8.13,3.56-10.68,2.37-2.55,6-3.83,10.88-3.83"/><path class="cls-2" d="m578.92,65.89c1.57-.45,3.6-.87,6.11-1.28,2.51-.4,5.28-.61,8.33-.61,2.86,0,5.26.4,7.19,1.17,1.93.79,3.46,1.88,4.6,3.29,1.14,1.41,1.95,3.11,2.42,5.1.47,2,.7,4.18.7,6.55v19.75h-8.13v-18.47c0-1.88-.12-3.48-.37-4.8-.25-1.32-.65-2.4-1.21-3.23-.56-.83-1.32-1.43-2.28-1.81-.96-.38-2.14-.57-3.53-.57-1.03,0-2.1.07-3.22.2-1.12.13-1.95.24-2.49.34v28.35h-8.13v-33.99Z"/><path class="cls-2" d="m630.57,94.17c2.51,0,4.41-.13,5.71-.4v-9c-.45-.13-1.1-.27-1.95-.4-.85-.14-1.79-.2-2.82-.2-.9,0-1.81.07-2.72.2-.92.13-1.75.38-2.49.74-.74.36-1.33.86-1.78,1.51-.45.65-.67,1.47-.67,2.45,0,1.93.61,3.26,1.81,4,1.21.74,2.84,1.11,4.9,1.11m-.67-30.29c2.68,0,4.95.34,6.78,1.01,1.84.67,3.31,1.61,4.4,2.82,1.09,1.21,1.88,2.68,2.35,4.4.47,1.73.7,3.62.7,5.68v21.29c-1.25.27-3.15.6-5.67.98-2.54.38-5.39.57-8.57.57-2.1,0-4.03-.2-5.78-.61-1.75-.4-3.24-1.05-4.47-1.95-1.23-.9-2.2-2.06-2.89-3.49-.69-1.43-1.04-3.2-1.04-5.31s.39-3.72,1.17-5.1c.78-1.39,1.85-2.52,3.19-3.39,1.34-.87,2.9-1.5,4.67-1.88,1.77-.38,3.61-.57,5.54-.57.9,0,1.83.06,2.82.17.99.11,2.04.3,3.16.57v-1.34c0-.94-.11-1.83-.34-2.68-.22-.85-.62-1.6-1.18-2.25-.56-.64-1.3-1.15-2.22-1.51-.92-.36-2.07-.54-3.45-.54-1.88,0-3.61.14-5.17.4-1.57.27-2.84.58-3.83.94l-1.01-6.58c1.03-.36,2.53-.72,4.5-1.07,1.97-.36,4.08-.54,6.31-.54"/><path class="cls-2" d="m654.08,65.89c1.57-.45,3.61-.87,6.11-1.28,2.51-.4,5.28-.61,8.33-.61,2.86,0,5.26.4,7.18,1.17,1.93.79,3.46,1.88,4.61,3.29,1.14,1.41,1.94,3.11,2.42,5.1.47,2,.7,4.18.7,6.55v19.75h-8.13v-18.47c0-1.88-.13-3.48-.37-4.8-.25-1.32-.65-2.4-1.21-3.23-.56-.83-1.32-1.43-2.28-1.81-.96-.38-2.14-.57-3.53-.57-1.03,0-2.1.07-3.22.2-1.12.13-1.95.24-2.48.34v28.35h-8.13v-33.99Z"/><path class="cls-2" d="m691.43,82.35c0-2.6.4-5.03,1.21-7.29.81-2.26,1.96-4.22,3.46-5.87,1.49-1.66,3.32-2.96,5.47-3.9,2.15-.94,4.57-1.41,7.25-1.41,3.31,0,6.45.6,9.4,1.81l-1.75,6.65c-.94-.4-2.01-.74-3.19-1.01-1.19-.27-2.45-.4-3.8-.4-3.18,0-5.6,1-7.26,2.99-1.65,1.99-2.48,4.8-2.48,8.43s.78,6.26,2.35,8.3c1.57,2.04,4.21,3.06,7.93,3.06,1.39,0,2.75-.14,4.1-.4,1.34-.27,2.51-.61,3.49-1.01l1.14,6.72c-.9.45-2.25.85-4.07,1.21-1.81.36-3.68.54-5.61.54-3,0-5.61-.46-7.83-1.37-2.22-.92-4.05-2.2-5.51-3.83-1.45-1.64-2.54-3.59-3.26-5.84-.71-2.26-1.07-4.72-1.07-7.36"/><path class="cls-2" d="m747.78,82.28c0-3.49-.74-6.26-2.25-8.29-1.5-2.04-3.59-3.06-6.29-3.06s-4.78,1.02-6.28,3.06c-1.5,2.04-2.25,4.8-2.25,8.29s.75,6.34,2.25,8.4c1.5,2.06,3.59,3.09,6.28,3.09s4.78-1.02,6.29-3.09c1.5-2.06,2.25-4.86,2.25-8.4m8.33,0c0,2.78-.4,5.31-1.21,7.59-.81,2.28-1.95,4.23-3.42,5.84-1.48,1.61-3.27,2.86-5.35,3.76-2.08.9-4.37,1.34-6.88,1.34s-4.79-.45-6.85-1.34c-2.06-.9-3.83-2.15-5.31-3.76-1.48-1.61-2.63-3.56-3.46-5.84-.83-2.28-1.24-4.81-1.24-7.59s.41-5.29,1.24-7.56c.83-2.26,1.99-4.2,3.49-5.81,1.5-1.61,3.28-2.85,5.34-3.72,2.05-.87,4.32-1.31,6.78-1.31s4.74.44,6.82,1.31c2.08.87,3.86,2.11,5.34,3.72,1.48,1.61,2.63,3.55,3.46,5.81.82,2.26,1.24,4.78,1.24,7.56"/><path class="cls-2" d="m772.75,99.88c-2.25-4.61-4.55-9.9-6.91-15.88-2.36-5.98-4.51-12.4-6.44-19.25h8.67c.5,1.97,1.06,4.09,1.72,6.34.65,2.27,1.35,4.52,2.09,6.79.74,2.27,1.51,4.45,2.3,6.59.79,2.13,1.52,4.04,2.19,5.74.67-1.7,1.39-3.61,2.16-5.74.76-2.13,1.52-4.32,2.26-6.59.74-2.26,1.45-4.52,2.12-6.79.67-2.26,1.26-4.38,1.75-6.34h8.4c-1.94,6.85-4.08,13.27-6.44,19.25-2.36,5.98-4.66,11.27-6.91,15.88h-6.95Z"/><path class="cls-2" d="m820.86,50.37l-10.95,10.61-4.03-3.63,9.87-11.75,5.11,4.77Zm-9.47,43.79c2.51,0,4.41-.13,5.71-.4v-9c-.45-.13-1.1-.27-1.95-.4-.85-.14-1.79-.2-2.82-.2-.9,0-1.8.07-2.72.2-.92.13-1.75.38-2.49.74-.74.36-1.33.86-1.78,1.51-.45.65-.68,1.47-.68,2.45,0,1.93.61,3.26,1.82,4,1.21.74,2.84,1.11,4.9,1.11m-.67-30.29c2.69,0,4.95.34,6.79,1.01,1.83.67,3.3,1.61,4.4,2.82,1.1,1.21,1.88,2.68,2.35,4.4.47,1.73.71,3.62.71,5.68v21.29c-1.26.27-3.15.6-5.68.98-2.53.38-5.39.57-8.57.57-2.1,0-4.02-.2-5.78-.61-1.75-.4-3.24-1.05-4.47-1.95-1.23-.9-2.19-2.06-2.89-3.49-.69-1.43-1.04-3.2-1.04-5.31s.39-3.72,1.18-5.1c.78-1.39,1.85-2.52,3.19-3.39,1.34-.87,2.9-1.5,4.67-1.88,1.77-.38,3.61-.57,5.54-.57.89,0,1.83.06,2.82.17.98.11,2.03.3,3.16.57v-1.34c0-.94-.12-1.83-.34-2.68-.22-.85-.62-1.6-1.18-2.25-.56-.64-1.3-1.15-2.22-1.51-.92-.36-2.08-.54-3.46-.54-1.88,0-3.6.14-5.17.4-1.57.27-2.84.58-3.82.94l-1.01-6.58c1.03-.36,2.53-.72,4.5-1.07,1.97-.36,4.07-.54,6.31-.54"/><path class="cls-2" d="m834.9,65.89c1.57-.45,3.61-.87,6.11-1.28,2.51-.4,5.29-.61,8.33-.61,2.86,0,5.26.4,7.18,1.17,1.93.79,3.46,1.88,4.6,3.29,1.14,1.41,1.95,3.11,2.42,5.1.47,2,.71,4.18.71,6.55v19.75h-8.13v-18.47c0-1.88-.12-3.48-.37-4.8-.24-1.32-.65-2.4-1.21-3.23-.57-.83-1.32-1.43-2.29-1.81-.96-.38-2.14-.57-3.53-.57-1.03,0-2.11.07-3.22.2-1.12.13-1.95.24-2.49.34v28.35h-8.13v-33.99Z"/><path class="cls-2" d="m897.63,82.28c0-3.49-.75-6.26-2.25-8.29-1.5-2.04-3.6-3.06-6.29-3.06s-4.78,1.02-6.28,3.06c-1.5,2.04-2.25,4.8-2.25,8.29s.75,6.34,2.25,8.4c1.5,2.06,3.6,3.09,6.28,3.09s4.78-1.02,6.29-3.09c1.5-2.06,2.25-4.86,2.25-8.4m8.33,0c0,2.78-.4,5.31-1.21,7.59-.81,2.28-1.95,4.23-3.43,5.84s-3.26,2.86-5.34,3.76c-2.08.9-4.37,1.34-6.88,1.34s-4.79-.45-6.85-1.34c-2.06-.9-3.83-2.15-5.31-3.76-1.48-1.61-2.63-3.56-3.46-5.84-.82-2.28-1.24-4.81-1.24-7.59s.42-5.29,1.24-7.56c.83-2.26,1.99-4.2,3.49-5.81,1.5-1.61,3.28-2.85,5.34-3.72,2.06-.87,4.32-1.31,6.78-1.31s4.74.44,6.82,1.31c2.08.87,3.86,2.11,5.34,3.72,1.48,1.61,2.63,3.55,3.46,5.81.83,2.26,1.24,4.78,1.24,7.56"/><polygon class="cls-2" points="358.07 180.48 358.07 133.93 387.96 133.93 387.96 141.12 366.53 141.12 366.53 152.6 385.61 152.6 385.61 159.66 366.53 159.66 366.53 173.29 389.57 173.29 389.57 180.48 358.07 180.48"/><path class="cls-2" d="m404.6,180.48c-2.25-4.61-4.55-9.9-6.91-15.88-2.36-5.98-4.51-12.4-6.44-19.25h8.67c.49,1.97,1.06,4.09,1.72,6.35.65,2.26,1.35,4.52,2.09,6.78.74,2.27,1.5,4.46,2.29,6.59.79,2.12,1.52,4.04,2.19,5.74.68-1.7,1.4-3.61,2.16-5.74.76-2.13,1.52-4.32,2.26-6.59.74-2.26,1.45-4.52,2.13-6.78.67-2.26,1.26-4.38,1.76-6.35h8.4c-1.93,6.85-4.08,13.27-6.44,19.25-2.36,5.98-4.67,11.27-6.91,15.88h-6.95Z"/><path class="cls-2" d="m450.9,152.67c-.67-.22-1.6-.46-2.79-.71-1.19-.24-2.57-.37-4.13-.37-.9,0-1.84.09-2.86.27-1.01.18-1.71.33-2.11.47v28.15h-8.13v-33.45c1.57-.59,3.52-1.14,5.87-1.65,2.36-.51,4.96-.77,7.83-.77.54,0,1.16.03,1.88.1.72.06,1.43.16,2.15.26.72.12,1.41.25,2.08.4.67.16,1.21.3,1.61.44l-1.41,6.85Z"/><path class="cls-2" d="m481.39,162.88c0-3.49-.75-6.26-2.25-8.29-1.51-2.04-3.6-3.06-6.28-3.06s-4.78,1.02-6.28,3.06c-1.5,2.04-2.25,4.8-2.25,8.29s.75,6.34,2.25,8.4c1.5,2.06,3.59,3.09,6.28,3.09s4.78-1.03,6.28-3.09c1.5-2.05,2.25-4.86,2.25-8.4m8.33,0c0,2.78-.4,5.31-1.21,7.59-.81,2.28-1.95,4.23-3.43,5.84-1.48,1.61-3.26,2.87-5.34,3.76-2.08.9-4.38,1.35-6.89,1.35s-4.79-.45-6.85-1.35c-2.06-.89-3.83-2.15-5.31-3.76-1.48-1.61-2.63-3.56-3.46-5.84-.83-2.28-1.24-4.81-1.24-7.59s.42-5.29,1.24-7.56,1.99-4.2,3.49-5.81c1.5-1.61,3.28-2.85,5.34-3.72,2.06-.88,4.32-1.31,6.79-1.31s4.74.44,6.82,1.31c2.09.87,3.86,2.11,5.34,3.72,1.48,1.61,2.63,3.55,3.46,5.81.83,2.26,1.24,4.78,1.24,7.56"/><path class="cls-2" d="m521.43,163.08c0-3.63-.82-6.45-2.46-8.47-1.64-2.01-4.26-3.02-7.89-3.02-.76,0-1.56.04-2.39.1-.83.07-1.64.21-2.45.44v20.08c.72.49,1.67.95,2.85,1.38,1.19.43,2.46.64,3.8.64,2.95,0,5.11-1.01,6.48-3.02,1.37-2.01,2.05-4.72,2.05-8.13m8.33-.14c0,2.69-.35,5.15-1.04,7.39-.69,2.24-1.69,4.16-2.99,5.78-1.3,1.61-2.92,2.87-4.87,3.76-1.95.89-4.15,1.34-6.61,1.34-1.66,0-3.18-.2-4.57-.6-1.39-.4-2.53-.85-3.43-1.34v13.63h-8.13v-46.41c1.66-.45,3.69-.87,6.11-1.28,2.42-.4,4.97-.61,7.66-.61s5.26.43,7.46,1.28c2.19.85,4.06,2.07,5.6,3.66,1.54,1.59,2.73,3.52,3.56,5.78.83,2.26,1.24,4.8,1.24,7.62"/><path class="cls-2" d="m546.95,174.64c2.15,0,3.72-.26,4.7-.77.99-.51,1.48-1.4,1.48-2.65,0-1.17-.53-2.13-1.58-2.89-1.05-.76-2.78-1.59-5.2-2.48-1.48-.54-2.83-1.11-4.07-1.71-1.23-.6-2.29-1.31-3.19-2.12-.9-.8-1.6-1.78-2.12-2.92-.51-1.14-.77-2.54-.77-4.2,0-3.22,1.19-5.76,3.56-7.62,2.37-1.86,5.6-2.79,9.67-2.79,2.06,0,4.03.19,5.91.57,1.88.38,3.29.75,4.23,1.11l-1.48,6.58c-.89-.4-2.04-.77-3.42-1.11s-3-.5-4.83-.5c-1.66,0-3,.28-4.03.84-1.03.56-1.54,1.42-1.54,2.58,0,.58.1,1.1.3,1.54.2.45.55.86,1.04,1.24.49.38,1.14.76,1.95,1.14.8.38,1.79.77,2.95,1.17,1.93.72,3.56,1.43,4.9,2.12,1.34.69,2.45,1.48,3.32,2.35.88.87,1.52,1.87,1.92,2.99.4,1.12.61,2.46.61,4.03,0,3.36-1.25,5.9-3.73,7.63-2.48,1.72-6.03,2.58-10.64,2.58-3.09,0-5.58-.26-7.46-.77-1.88-.51-3.2-.93-3.96-1.24l1.41-6.78c1.21.49,2.65.96,4.33,1.41,1.68.45,3.6.67,5.75.67"/><path class="cls-2" d="m576.97,159.05c1.02-1.07,2.13-2.23,3.29-3.46,1.17-1.23,2.3-2.46,3.43-3.69,1.12-1.23,2.18-2.42,3.19-3.56,1.01-1.14,1.87-2.14,2.59-2.99h9.6c-2.23,2.51-4.59,5.1-7.07,7.79-2.48,2.69-4.97,5.31-7.47,7.86,1.34,1.12,2.75,2.48,4.22,4.07,1.47,1.59,2.91,3.28,4.29,5.07,1.39,1.79,2.68,3.58,3.89,5.37,1.21,1.79,2.21,3.45,3.02,4.97h-9.4c-.8-1.39-1.74-2.84-2.79-4.37-1.05-1.52-2.18-3-3.39-4.43-1.21-1.43-2.45-2.79-3.69-4.06-1.25-1.28-2.49-2.36-3.69-3.26v16.12h-8.13v-50.78l8.13-1.34v30.69Z"/><path class="cls-2" d="m627.55,162.88c0-3.49-.75-6.26-2.25-8.29-1.51-2.04-3.6-3.06-6.28-3.06s-4.78,1.02-6.28,3.06c-1.49,2.04-2.25,4.8-2.25,8.29s.75,6.34,2.25,8.4c1.51,2.06,3.6,3.09,6.28,3.09s4.78-1.03,6.28-3.09c1.5-2.05,2.25-4.86,2.25-8.4m8.33,0c0,2.78-.4,5.31-1.21,7.59-.8,2.28-1.95,4.23-3.42,5.84-1.48,1.61-3.26,2.87-5.34,3.76-2.08.9-4.37,1.35-6.88,1.35s-4.79-.45-6.85-1.35c-2.06-.89-3.83-2.15-5.31-3.76-1.48-1.61-2.63-3.56-3.46-5.84-.83-2.28-1.24-4.81-1.24-7.59s.42-5.29,1.24-7.56c.83-2.26,1.99-4.2,3.49-5.81,1.5-1.61,3.28-2.85,5.34-3.72,2.06-.88,4.32-1.31,6.79-1.31s4.74.44,6.82,1.31c2.09.87,3.86,2.11,5.34,3.72,1.48,1.61,2.63,3.55,3.46,5.81.82,2.26,1.24,4.78,1.24,7.56"/><path class="cls-2" d="m673.09,179.4c-1.57.4-3.61.82-6.11,1.24-2.51.42-5.26.64-8.26.64-2.82,0-5.18-.4-7.09-1.21-1.9-.81-3.42-1.93-4.56-3.36-1.15-1.44-1.96-3.15-2.46-5.14-.49-1.99-.74-4.18-.74-6.55v-19.68h8.13v18.4c0,3.76.55,6.45,1.65,8.06,1.09,1.61,3.01,2.42,5.74,2.42.99,0,2.03-.04,3.13-.13,1.1-.09,1.91-.2,2.45-.34v-28.41h8.13v34.05Z"/><path class="cls-2" d="m727.9,179.4c-1.57.4-3.61.82-6.11,1.24-2.51.42-5.26.64-8.26.64-2.82,0-5.18-.4-7.09-1.21-1.9-.81-3.42-1.93-4.56-3.36-1.15-1.44-1.96-3.15-2.46-5.14-.49-1.99-.74-4.18-.74-6.55v-19.68h8.13v18.4c0,3.76.55,6.45,1.65,8.06,1.09,1.61,3.01,2.42,5.74,2.42.98,0,2.03-.04,3.13-.13,1.1-.09,1.91-.2,2.45-.34v-28.41h8.13v34.05Z"/><path class="cls-2" d="m738.24,146.49c1.57-.45,3.61-.88,6.12-1.28,2.5-.4,5.28-.61,8.32-.61,2.86,0,5.26.39,7.19,1.18,1.92.78,3.46,1.88,4.6,3.29,1.14,1.42,1.94,3.11,2.42,5.11.46,2,.7,4.18.7,6.55v19.75h-8.13v-18.47c0-1.88-.13-3.48-.37-4.8-.25-1.32-.65-2.4-1.21-3.23-.57-.83-1.32-1.43-2.29-1.81-.96-.38-2.14-.58-3.53-.58-1.03,0-2.1.07-3.22.2-1.12.13-1.95.24-2.49.33v28.35h-8.13v-33.99Z"/><path class="cls-2" d="m785.73,180.48h-8.13v-35.13h8.13v35.13Zm.87-45.41c0,1.52-.49,2.73-1.48,3.63-.99.9-2.15,1.34-3.49,1.34s-2.58-.45-3.56-1.34c-.99-.89-1.48-2.1-1.48-3.63s.49-2.8,1.48-3.69c.98-.89,2.17-1.34,3.56-1.34s2.5.45,3.49,1.34c.99.9,1.48,2.13,1.48,3.69"/><path class="cls-2" d="m804.27,180.48h-8.13v-35.13h8.13v35.13Zm5.57-49.5l-10.95,10.61-4.03-3.63,9.87-11.75,5.11,4.77Z"/></svg>